<svg version="1.1" xmlns="http://www.w3.org/2000/svg" xmlns:xlink="http://www.w3.org/1999/xlink" width="568" height="94"><defs><clipPath id="mspCfJlZxHiG"><path fill="none" stroke="none" d=" M 0 0 L 568 0 L 568 94 L 0 94 L 0 0 Z"/></clipPath></defs><g transform="scale(1,1)" clip-path="url(#mspCfJlZxHiG)"><g transform="translate(-70,-258)"><path fill="rgb(101,87,210)" stroke="none" paint-order="stroke fill markers" fill-rule="evenodd" d=" M 450 115 L 472 115 C 473.1045694996616 115 474 115.8954305003384 474 117 L 474 139 C 474 140.10456949966158 473.1045694996616 141 472 141 L 450 141 C 448.8954305003384 141 448 140.10456949966158 448 139 L 448 117 C 448 115.8954305003384 448.8954305003384 115 450 115 Z" fill-opacity="1"/><g transform="translate(448,115)"><path fill="none" stroke="rgb(255,255,255)" paint-order="fill stroke markers" d=" M 4.44 13.76 L 9.75 19.07 L 21.99 6.83" stroke-opacity="1" stroke-linecap="square" stroke-miterlimit="10" stroke-width="2.6"/><g transform="translate(-448,-115)"><text fill="rgb(0,0,0)" stroke="none" font-family="geogebra-sans-serif, sans-serif" font-size="32px" font-style="normal" font-weight="normal" text-decoration="normal" x="483" y="140" text-anchor="start" dominant-baseline="alphabetic" fill-opacity="1">Serif</text><g transform="scale(35,35)"><g transform="translate(2.3672142857142857,8.764650857142858)"><path fill="rgb(0,0,0)" stroke="none" paint-order="stroke fill markers" d=" M 0.203 -0.619 Q 0.203 -0.589 0.176 -0.5750000000000001 Q 0.165 -0.5690000000000001 0.153 -0.5690000000000001 Q 0.12 -0.5690000000000001 0.107 -0.599 Q 0.10300000000000001 -0.608 0.10300000000000001 -0.619 Q 0.10300000000000001 -0.652 0.133 -0.665 Q 0.14200000000000002 -0.669 0.153 -0.669 Q 0.185 -0.669 0.199 -0.639 Q 0.203 -0.629 0.203 -0.619 M 0.396 -0.619 Q 0.396 -0.586 0.366 -0.5730000000000001 Q 0.357 -0.5690000000000001 0.34600000000000003 -0.5690000000000001 Q 0.313 -0.5690000000000001 0.3 -0.6 Q 0.296 -0.61 0.296 -0.619 Q 0.296 -0.649 0.323 -0.663 L 0.324 -0.664 Q 0.334 -0.669 0.34600000000000003 -0.669 Q 0.379 -0.669 0.392 -0.639 Q 0.396 -0.63 0.396 -0.619 Z"/></g><g transform="translate(2.2857142857142856,9.02765085714286)"><path fill="rgb(0,0,0)" stroke="none" paint-order="stroke fill markers" d=" M 0.455 -0.5 L 0.455 -0.5 Q 0.455 -0.34700000000000003 0.377 -0.19 Q 0.307 -0.05 0.222 -0.005 Q 0.191 0.011 0.162 0.011 Q 0.08 0.011 0.052000000000000005 -0.101 Q 0.042 -0.14300000000000002 0.042 -0.194 Q 0.042 -0.35100000000000003 0.122 -0.509 Q 0.192 -0.646 0.277 -0.6900000000000001 Q 0.307 -0.705 0.335 -0.705 Q 0.422 -0.705 0.447 -0.578 Q 0.455 -0.54 0.455 -0.5 M 0.148 -0.363 L 0.148 -0.363 L 0.357 -0.363 Q 0.389 -0.495 0.389 -0.562 Q 0.389 -0.675 0.342 -0.682 Q 0.338 -0.683 0.334 -0.683 Q 0.28300000000000003 -0.683 0.225 -0.578 Q 0.187 -0.511 0.149 -0.368 Q 0.149 -0.365 0.148 -0.363 M 0.34800000000000003 -0.331 L 0.14 -0.331 Q 0.108 -0.21 0.108 -0.133 Q 0.108 -0.013000000000000001 0.162 -0.011 Q 0.218 -0.011 0.278 -0.128 Q 0.317 -0.202 0.34800000000000003 -0.331 Z"/></g><g transform="translate(3.060492063492063,9.027650857142858)"><path fill="rgb(0,0,0)" stroke="none" paint-order="stroke fill markers" d=" M 0.687 -0.327 L 0.09 -0.327 Q 0.058 -0.327 0.056 -0.34700000000000003 Q 0.056 -0.367 0.089 -0.367 L 0.6880000000000001 -0.367 Q 0.72 -0.367 0.721 -0.34700000000000003 Q 0.721 -0.327 0.687 -0.327 M 0.6880000000000001 -0.133 L 0.089 -0.133 Q 0.057 -0.133 0.056 -0.153 Q 0.056 -0.17300000000000001 0.09 -0.17300000000000001 L 0.687 -0.17300000000000001 Q 0.719 -0.17300000000000001 0.721 -0.153 Q 0.721 -0.133 0.6880000000000001 -0.133 Z"/></g><g transform="translate(4.116269841269841,9.027650857142858)"><path fill="rgb(0,0,0)" stroke="none" paint-order="stroke fill markers" d=" M 0.661 -0.23 L 0.116 -0.23 Q 0.084 -0.23 0.083 -0.25 Q 0.083 -0.27 0.116 -0.27 L 0.661 -0.27 Q 0.6930000000000001 -0.27 0.6940000000000001 -0.25 Q 0.6940000000000001 -0.23 0.661 -0.23 Z"/></g><g transform="translate(5.095094131133079,8.351142857142857)"><path fill="rgb(0,0,0)" stroke="none" paint-order="stroke fill markers" d=" M 0.47100000000000003 -0.377 L 0.47100000000000003 -0.377 L 0.36 0.067 Q 0.34500000000000003 0.127 0.28200000000000003 0.168 Q 0.224 0.20500000000000002 0.148 0.20500000000000002 Q 0.025 0.20500000000000002 0.016 0.155 Q 0.015 0.15 0.015 0.14400000000000002 Q 0.015 0.10300000000000001 0.052000000000000005 0.089 Q 0.061 0.08600000000000001 0.069 0.08600000000000001 Q 0.1 0.08600000000000001 0.106 0.113 Q 0.107 0.117 0.107 0.121 Q 0.107 0.153 0.077 0.169 Q 0.07200000000000001 0.171 0.066 0.17300000000000001 Q 0.097 0.183 0.146 0.183 Q 0.244 0.183 0.29 0.075 L 0.323 -0.057 L 0.322 -0.058 Q 0.277 -0.008 0.221 -0.001 Q 0.213 0 0.20600000000000002 0 Q 0.136 0 0.098 -0.061 Q 0.073 -0.10200000000000001 0.073 -0.158 Q 0.073 -0.265 0.149 -0.354 Q 0.219 -0.436 0.3 -0.442 L 0.311 -0.442 Q 0.365 -0.442 0.398 -0.391 L 0.404 -0.379 Q 0.41300000000000003 -0.417 0.445 -0.422 Q 0.47100000000000003 -0.422 0.47400000000000003 -0.395 L 0.47100000000000003 -0.377 M 0.341 -0.128 L 0.341 -0.128 L 0.389 -0.319 Q 0.392 -0.331 0.392 -0.334 Q 0.392 -0.354 0.375 -0.382 L 0.375 -0.382 Q 0.363 -0.402 0.34500000000000003 -0.41200000000000003 Q 0.33 -0.42 0.312 -0.42 Q 0.26 -0.42 0.213 -0.353 Q 0.20600000000000002 -0.342 0.2 -0.331 Q 0.168 -0.271 0.149 -0.164 Q 0.14400000000000002 -0.133 0.14400000000000002 -0.114 Q 0.14400000000000002 -0.048 0.182 -0.028 Q 0.193 -0.022 0.209 -0.022 Q 0.248 -0.022 0.29 -0.058 Q 0.334 -0.096 0.341 -0.128 Z"/></g><rect fill="rgb(0,0,0)" stroke="none" x="5.095094131133079" y="8.757651357142858" width="0.513" height="0.039999"/><g transform="translate(5.192594131133079,9.713601857142859)"><path fill="rgb(0,0,0)" stroke="none" paint-order="stroke fill markers" d=" M 0.258 -0.683 L 0.114 -0.105 Q 0.108 -0.082 0.108 -0.057 Q 0.108 -0.011 0.138 -0.011 Q 0.177 -0.011 0.203 -0.097 Q 0.20800000000000002 -0.112 0.214 -0.135 Q 0.222 -0.152 0.228 -0.153 Q 0.24 -0.153 0.24 -0.14300000000000002 Q 0.24 -0.128 0.222 -0.074 Q 0.216 -0.057 0.21 -0.045 Q 0.184 0.011 0.135 0.011 Q 0.083 0.011 0.057 -0.031 Q 0.044 -0.053 0.044 -0.081 Q 0.044 -0.097 0.049 -0.115 L 0.17500000000000002 -0.615 L 0.178 -0.635 Q 0.178 -0.646 0.164 -0.649 Q 0.152 -0.652 0.129 -0.652 Q 0.106 -0.652 0.10400000000000001 -0.663 Q 0.10400000000000001 -0.681 0.123 -0.684 L 0.245 -0.6940000000000001 Q 0.258 -0.6940000000000001 0.258 -0.683 Z"/></g><g transform="translate(5.808918420996318,9.027650857142858)"><path fill="rgb(0,0,0)" stroke="none" paint-order="stroke fill markers" d=" M 0.20800000000000002 -0.194 L 0.20800000000000002 -0.194 Q 0.122 -0.211 0.095 -0.227 Q 0.085 -0.232 0.076 -0.24 Q 0.033 -0.275 0.033 -0.325 Q 0.033 -0.395 0.095 -0.427 Q 0.134 -0.448 0.193 -0.448 Q 0.249 -0.448 0.28700000000000003 -0.42 Q 0.298 -0.429 0.304 -0.436 Q 0.317 -0.448 0.324 -0.448 Q 0.334 -0.439 0.335 -0.424 L 0.335 -0.323 Q 0.335 -0.302 0.329 -0.3 L 0.328 -0.3 L 0.327 -0.299 L 0.322 -0.299 Q 0.311 -0.299 0.31 -0.308 Q 0.303 -0.40900000000000003 0.227 -0.426 Q 0.211 -0.429 0.193 -0.429 Q 0.099 -0.429 0.083 -0.371 Q 0.081 -0.362 0.081 -0.353 Q 0.081 -0.302 0.158 -0.281 Q 0.17300000000000001 -0.277 0.20400000000000001 -0.271 Q 0.276 -0.257 0.307 -0.232 Q 0.313 -0.228 0.318 -0.223 Q 0.36 -0.181 0.36 -0.128 Q 0.36 -0.043000000000000003 0.29 -0.008 Q 0.252 0.011 0.199 0.011 Q 0.134 0.011 0.089 -0.032 L 0.069 -0.009000000000000001 Q 0.049 0.011 0.044 0.011 Q 0.034 0.002 0.033 -0.013000000000000001 L 0.033 -0.145 Q 0.033 -0.167 0.04 -0.169 L 0.04 -0.169 L 0.041 -0.17 L 0.046 -0.17 Q 0.056 -0.17 0.059000000000000004 -0.159 Q 0.059000000000000004 -0.157 0.06 -0.153 Q 0.08600000000000001 -0.037 0.159 -0.016 Q 0.177 -0.011 0.199 -0.011 Q 0.289 -0.011 0.308 -0.074 Q 0.312 -0.08700000000000001 0.312 -0.10200000000000001 Q 0.312 -0.17500000000000002 0.20800000000000002 -0.194 Z"/></g><g transform="translate(6.202918420996318,9.027650857142858)"><path fill="rgb(0,0,0)" stroke="none" paint-order="stroke fill markers" d=" M 0.177 -0.442 L 0.177 -0.442 L 0.177 -0.075 Q 0.177 -0.044 0.189 -0.037 L 0.189 -0.037 Q 0.201 -0.031 0.247 -0.031 L 0.247 0 Q 0.145 -0.003 0.14300000000000002 -0.003 Q 0.129 -0.003 0.033 0 L 0.033 -0.031 Q 0.092 -0.031 0.10200000000000001 -0.04 L 0.10400000000000001 -0.042 Q 0.111 -0.05 0.111 -0.076 L 0.111 -0.34500000000000003 Q 0.111 -0.385 0.095 -0.393 L 0.094 -0.393 L 0.094 -0.393 L 0.093 -0.394 L 0.093 -0.394 Q 0.08 -0.4 0.037 -0.4 L 0.037 -0.431 L 0.177 -0.442 M 0.181 -0.616 Q 0.181 -0.579 0.148 -0.5670000000000001 Q 0.138 -0.5630000000000001 0.128 -0.5630000000000001 Q 0.093 -0.5630000000000001 0.079 -0.595 L 0.079 -0.596 Q 0.075 -0.606 0.075 -0.616 Q 0.075 -0.647 0.10300000000000001 -0.662 Q 0.114 -0.669 0.128 -0.669 Q 0.162 -0.669 0.176 -0.639 Q 0.181 -0.628 0.181 -0.616 Z"/></g><g transform="translate(6.480918420996318,9.027650857142858)"><path fill="rgb(0,0,0)" stroke="none" paint-order="stroke fill markers" d=" M 0.11 -0.34400000000000003 Q 0.11 -0.383 0.095 -0.392 Q 0.083 -0.399 0.052000000000000005 -0.4 L 0.032 -0.4 L 0.032 -0.431 L 0.17300000000000001 -0.442 L 0.17300000000000001 -0.337 Q 0.22 -0.442 0.321 -0.442 Q 0.396 -0.442 0.426 -0.405 Q 0.453 -0.374 0.456 -0.32 Q 0.457 -0.301 0.457 -0.252 L 0.457 -0.061 Q 0.458 -0.037 0.486 -0.033 Q 0.498 -0.031 0.535 -0.031 L 0.535 0 Q 0.433 -0.003 0.423 -0.003 Q 0.41500000000000004 -0.003 0.31 0 L 0.31 -0.031 Q 0.369 -0.031 0.379 -0.04 L 0.381 -0.042 Q 0.388 -0.05 0.388 -0.076 L 0.388 -0.309 Q 0.388 -0.40800000000000003 0.331 -0.418 Q 0.323 -0.42 0.314 -0.42 Q 0.253 -0.42 0.212 -0.367 Q 0.179 -0.324 0.179 -0.26 L 0.179 -0.076 Q 0.179 -0.042 0.195 -0.036000000000000004 Q 0.20600000000000002 -0.031 0.257 -0.031 L 0.257 0 Q 0.155 -0.003 0.145 -0.003 Q 0.137 -0.003 0.032 0 L 0.032 -0.031 Q 0.091 -0.031 0.101 -0.04 L 0.10300000000000001 -0.042 Q 0.11 -0.05 0.11 -0.076 L 0.11 -0.34400000000000003 Z"/></g><g transform="translate(7.036918420996319,9.027650857142858)"><path fill="rgb(0,0,0)" stroke="none" paint-order="stroke fill markers" d=" M 0.331 0.24 L 0.331 0.24 Q 0.331 0.25 0.321 0.25 Q 0.309 0.25 0.268 0.209 Q 0.20600000000000002 0.147 0.165 0.062 Q 0.099 -0.074 0.099 -0.25 Q 0.099 -0.419 0.162 -0.555 Q 0.214 -0.666 0.294 -0.733 Q 0.315 -0.75 0.321 -0.75 Q 0.331 -0.75 0.331 -0.74 Q 0.331 -0.735 0.318 -0.723 Q 0.157 -0.559 0.157 -0.25 Q 0.157 0.058 0.314 0.218 Q 0.331 0.23500000000000001 0.331 0.24 Z"/></g><g transform="translate(7.425918420996319,9.027650857142858)"><path fill="rgb(0,0,0)" stroke="none" paint-order="stroke fill markers" d=" M 0.455 -0.5 L 0.455 -0.5 Q 0.455 -0.34700000000000003 0.377 -0.19 Q 0.307 -0.05 0.222 -0.005 Q 0.191 0.011 0.162 0.011 Q 0.08 0.011 0.052000000000000005 -0.101 Q 0.042 -0.14300000000000002 0.042 -0.194 Q 0.042 -0.35100000000000003 0.122 -0.509 Q 0.192 -0.646 0.277 -0.6900000000000001 Q 0.307 -0.705 0.335 -0.705 Q 0.422 -0.705 0.447 -0.578 Q 0.455 -0.54 0.455 -0.5 M 0.148 -0.363 L 0.148 -0.363 L 0.357 -0.363 Q 0.389 -0.495 0.389 -0.562 Q 0.389 -0.675 0.342 -0.682 Q 0.338 -0.683 0.334 -0.683 Q 0.28300000000000003 -0.683 0.225 -0.578 Q 0.187 -0.511 0.149 -0.368 Q 0.149 -0.365 0.148 -0.363 M 0.34800000000000003 -0.331 L 0.14 -0.331 Q 0.108 -0.21 0.108 -0.133 Q 0.108 -0.013000000000000001 0.162 -0.011 Q 0.218 -0.011 0.278 -0.128 Q 0.317 -0.202 0.34800000000000003 -0.331 Z"/></g><g transform="translate(7.922918420996319,9.027650857142858)"><path fill="rgb(0,0,0)" stroke="none" paint-order="stroke fill markers" d=" M 0.289 -0.25 L 0.289 -0.25 Q 0.289 -0.081 0.226 0.055 Q 0.17400000000000002 0.166 0.094 0.233 Q 0.073 0.25 0.067 0.25 Q 0.057 0.25 0.057 0.24 Q 0.057 0.23500000000000001 0.07 0.223 Q 0.231 0.059000000000000004 0.231 -0.25 Q 0.231 -0.555 0.081 -0.712 L 0.076 -0.717 Q 0.057 -0.735 0.057 -0.74 Q 0.057 -0.75 0.067 -0.75 Q 0.079 -0.75 0.12 -0.709 Q 0.182 -0.647 0.223 -0.562 Q 0.289 -0.426 0.289 -0.25 Z"/></g><g transform="translate(8.756362865440764,9.027650857142858)"><path fill="rgb(0,0,0)" stroke="none" paint-order="stroke fill markers" d=" M 0.661 -0.23 L 0.116 -0.23 Q 0.084 -0.23 0.083 -0.25 Q 0.083 -0.27 0.116 -0.27 L 0.661 -0.27 Q 0.6930000000000001 -0.27 0.6940000000000001 -0.25 Q 0.6940000000000001 -0.23 0.661 -0.23 Z"/></g><g transform="translate(10.068520488637336,8.351142857142857)"><path fill="rgb(0,0,0)" stroke="none" paint-order="stroke fill markers" d=" M 0.373 -0.378 Q 0.378 -0.41200000000000003 0.404 -0.42 Q 0.40900000000000003 -0.422 0.41500000000000004 -0.422 Q 0.441 -0.422 0.444 -0.395 Q 0.444 -0.389 0.437 -0.361 L 0.401 -0.221 Q 0.386 -0.158 0.379 -0.131 Q 0.366 -0.079 0.366 -0.057 Q 0.366 -0.011 0.396 -0.011 Q 0.434 -0.011 0.46 -0.091 Q 0.465 -0.108 0.47200000000000003 -0.135 Q 0.48 -0.152 0.486 -0.153 Q 0.498 -0.153 0.498 -0.14300000000000002 Q 0.498 -0.128 0.48 -0.073 Q 0.47400000000000003 -0.056 0.468 -0.044 Q 0.44 0.011 0.394 0.011 Q 0.338 0.011 0.313 -0.037 Q 0.306 -0.049 0.303 -0.064 Q 0.24 0.011 0.17300000000000001 0.011 Q 0.098 0.011 0.062 -0.057 Q 0.04 -0.097 0.04 -0.149 Q 0.04 -0.257 0.115 -0.34900000000000003 Q 0.185 -0.433 0.267 -0.441 Q 0.274 -0.442 0.281 -0.442 Q 0.342 -0.442 0.373 -0.378 M 0.308 -0.11900000000000001 L 0.308 -0.11900000000000001 L 0.358 -0.315 Q 0.361 -0.33 0.361 -0.332 Q 0.361 -0.353 0.343 -0.383 Q 0.321 -0.42 0.28200000000000003 -0.42 Q 0.23 -0.42 0.183 -0.352 Q 0.17400000000000002 -0.339 0.166 -0.324 Q 0.137 -0.266 0.117 -0.159 Q 0.111 -0.125 0.111 -0.105 Q 0.111 -0.037 0.149 -0.017 Q 0.16 -0.011 0.17500000000000002 -0.011 Q 0.231 -0.011 0.28800000000000003 -0.082 Q 0.302 -0.098 0.307 -0.115 L 0.307 -0.116 Q 0.308 -0.11800000000000001 0.308 -0.11900000000000001 Z"/></g><g transform="translate(10.597520488637336,8.501142857142858) scale(0.7,0.7)"><path fill="rgb(0,0,0)" stroke="none" paint-order="stroke fill markers" d=" M 0.396 -0.38 L 0.396 -0.38 Q 0.368 -0.41600000000000004 0.31 -0.42 Q 0.245 -0.42 0.192 -0.354 Q 0.179 -0.338 0.169 -0.32 Q 0.129 -0.247 0.117 -0.148 Q 0.115 -0.132 0.115 -0.12 Q 0.115 -0.038 0.171 -0.017 Q 0.185 -0.011 0.20500000000000002 -0.011 Q 0.295 -0.011 0.367 -0.07100000000000001 Q 0.388 -0.088 0.405 -0.11 Q 0.41200000000000003 -0.12 0.418 -0.12 Q 0.427 -0.12 0.43 -0.107 Q 0.43 -0.096 0.396 -0.064 Q 0.313 0.011 0.203 0.011 Q 0.108 0.011 0.065 -0.065 Q 0.041 -0.106 0.041 -0.158 Q 0.041 -0.26 0.11900000000000001 -0.34700000000000003 Q 0.196 -0.433 0.291 -0.441 Q 0.3 -0.442 0.309 -0.442 Q 0.386 -0.442 0.41600000000000004 -0.395 Q 0.427 -0.377 0.427 -0.356 Q 0.427 -0.312 0.392 -0.296 Q 0.382 -0.292 0.371 -0.292 Q 0.341 -0.292 0.335 -0.318 Q 0.334 -0.322 0.334 -0.327 Q 0.334 -0.34900000000000003 0.352 -0.366 Q 0.366 -0.38 0.396 -0.38 Z"/></g><rect fill="rgb(0,0,0)" stroke="none" x="10.068520488637336" y="8.757651357142858" width="0.8321000000000001" height="0.039999"/><g transform="translate(10.325570488637336,9.713601857142859)"><path fill="rgb(0,0,0)" stroke="none" paint-order="stroke fill markers" d=" M 0.258 -0.683 L 0.114 -0.105 Q 0.108 -0.082 0.108 -0.057 Q 0.108 -0.011 0.138 -0.011 Q 0.177 -0.011 0.203 -0.097 Q 0.20800000000000002 -0.112 0.214 -0.135 Q 0.222 -0.152 0.228 -0.153 Q 0.24 -0.153 0.24 -0.14300000000000002 Q 0.24 -0.128 0.222 -0.074 Q 0.216 -0.057 0.21 -0.045 Q 0.184 0.011 0.135 0.011 Q 0.083 0.011 0.057 -0.031 Q 0.044 -0.053 0.044 -0.081 Q 0.044 -0.097 0.049 -0.115 L 0.17500000000000002 -0.615 L 0.178 -0.635 Q 0.178 -0.646 0.164 -0.649 Q 0.152 -0.652 0.129 -0.652 Q 0.106 -0.652 0.10400000000000001 -0.663 Q 0.10400000000000001 -0.681 0.123 -0.684 L 0.245 -0.6940000000000001 Q 0.258 -0.6940000000000001 0.258 -0.683 Z"/></g><g transform="translate(11.101444778500573,9.027650857142858)"><path fill="rgb(0,0,0)" stroke="none" paint-order="stroke fill markers" d=" M 0.359 -0.386 Q 0.323 -0.423 0.252 -0.423 Q 0.189 -0.423 0.151 -0.363 Q 0.117 -0.309 0.117 -0.218 Q 0.117 -0.074 0.203 -0.029 Q 0.23 -0.014 0.258 -0.014 Q 0.356 -0.014 0.389 -0.11900000000000001 Q 0.392 -0.129 0.402 -0.129 Q 0.41500000000000004 -0.129 0.41500000000000004 -0.11900000000000001 Q 0.41500000000000004 -0.1 0.393 -0.065 Q 0.34400000000000003 0.011 0.249 0.011 Q 0.155 0.011 0.09 -0.063 Q 0.034 -0.128 0.034 -0.216 Q 0.034 -0.319 0.105 -0.388 Q 0.166 -0.448 0.251 -0.448 Q 0.334 -0.448 0.378 -0.403 Q 0.404 -0.376 0.404 -0.341 Q 0.404 -0.303 0.371 -0.295 Q 0.365 -0.294 0.358 -0.294 Q 0.323 -0.294 0.314 -0.326 Q 0.312 -0.332 0.312 -0.34 Q 0.312 -0.376 0.34700000000000003 -0.384 Q 0.353 -0.386 0.359 -0.386 Z"/></g><g transform="translate(11.545444778500574,9.027650857142858)"><path fill="rgb(0,0,0)" stroke="none" paint-order="stroke fill markers" d=" M 0.47100000000000003 -0.214 L 0.47100000000000003 -0.214 Q 0.47100000000000003 -0.111 0.395 -0.044 Q 0.332 0.011 0.249 0.011 Q 0.153 0.011 0.08700000000000001 -0.061 Q 0.028 -0.126 0.028 -0.214 Q 0.028 -0.316 0.101 -0.386 Q 0.164 -0.448 0.25 -0.448 Q 0.34700000000000003 -0.448 0.41300000000000003 -0.371 Q 0.47100000000000003 -0.304 0.47100000000000003 -0.214 M 0.25 -0.014 L 0.25 -0.014 Q 0.317 -0.014 0.356 -0.07 L 0.366 -0.088 Q 0.388 -0.132 0.388 -0.222 Q 0.388 -0.318 0.362 -0.361 Q 0.319 -0.423 0.249 -0.426 Q 0.187 -0.426 0.147 -0.376 Q 0.14 -0.368 0.135 -0.359 Q 0.111 -0.315 0.111 -0.222 Q 0.111 -0.125 0.136 -0.081 Q 0.178 -0.016 0.25 -0.014 Z"/></g><g transform="translate(12.045444778500574,9.027650857142858)"><path fill="rgb(0,0,0)" stroke="none" paint-order="stroke fill markers" d=" M 0.20800000000000002 -0.194 L 0.20800000000000002 -0.194 Q 0.122 -0.211 0.095 -0.227 Q 0.085 -0.232 0.076 -0.24 Q 0.033 -0.275 0.033 -0.325 Q 0.033 -0.395 0.095 -0.427 Q 0.134 -0.448 0.193 -0.448 Q 0.249 -0.448 0.28700000000000003 -0.42 Q 0.298 -0.429 0.304 -0.436 Q 0.317 -0.448 0.324 -0.448 Q 0.334 -0.439 0.335 -0.424 L 0.335 -0.323 Q 0.335 -0.302 0.329 -0.3 L 0.328 -0.3 L 0.327 -0.299 L 0.322 -0.299 Q 0.311 -0.299 0.31 -0.308 Q 0.303 -0.40900000000000003 0.227 -0.426 Q 0.211 -0.429 0.193 -0.429 Q 0.099 -0.429 0.083 -0.371 Q 0.081 -0.362 0.081 -0.353 Q 0.081 -0.302 0.158 -0.281 Q 0.17300000000000001 -0.277 0.20400000000000001 -0.271 Q 0.276 -0.257 0.307 -0.232 Q 0.313 -0.228 0.318 -0.223 Q 0.36 -0.181 0.36 -0.128 Q 0.36 -0.043000000000000003 0.29 -0.008 Q 0.252 0.011 0.199 0.011 Q 0.134 0.011 0.089 -0.032 L 0.069 -0.009000000000000001 Q 0.049 0.011 0.044 0.011 Q 0.034 0.002 0.033 -0.013000000000000001 L 0.033 -0.145 Q 0.033 -0.167 0.04 -0.169 L 0.04 -0.169 L 0.041 -0.17 L 0.046 -0.17 Q 0.056 -0.17 0.059000000000000004 -0.159 Q 0.059000000000000004 -0.157 0.06 -0.153 Q 0.08600000000000001 -0.037 0.159 -0.016 Q 0.177 -0.011 0.199 -0.011 Q 0.289 -0.011 0.308 -0.074 Q 0.312 -0.08700000000000001 0.312 -0.10200000000000001 Q 0.312 -0.17500000000000002 0.20800000000000002 -0.194 Z"/></g><g transform="translate(12.439444778500572,9.027650857142858)"><path fill="rgb(0,0,0)" stroke="none" paint-order="stroke fill markers" d=" M 0.331 0.24 L 0.331 0.24 Q 0.331 0.25 0.321 0.25 Q 0.309 0.25 0.268 0.209 Q 0.20600000000000002 0.147 0.165 0.062 Q 0.099 -0.074 0.099 -0.25 Q 0.099 -0.419 0.162 -0.555 Q 0.214 -0.666 0.294 -0.733 Q 0.315 -0.75 0.321 -0.75 Q 0.331 -0.75 0.331 -0.74 Q 0.331 -0.735 0.318 -0.723 Q 0.157 -0.559 0.157 -0.25 Q 0.157 0.058 0.314 0.218 Q 0.331 0.23500000000000001 0.331 0.24 Z"/></g><g transform="translate(12.828444778500572,9.027650857142858)"><path fill="rgb(0,0,0)" stroke="none" paint-order="stroke fill markers" d=" M 0.455 -0.5 L 0.455 -0.5 Q 0.455 -0.34700000000000003 0.377 -0.19 Q 0.307 -0.05 0.222 -0.005 Q 0.191 0.011 0.162 0.011 Q 0.08 0.011 0.052000000000000005 -0.101 Q 0.042 -0.14300000000000002 0.042 -0.194 Q 0.042 -0.35100000000000003 0.122 -0.509 Q 0.192 -0.646 0.277 -0.6900000000000001 Q 0.307 -0.705 0.335 -0.705 Q 0.422 -0.705 0.447 -0.578 Q 0.455 -0.54 0.455 -0.5 M 0.148 -0.363 L 0.148 -0.363 L 0.357 -0.363 Q 0.389 -0.495 0.389 -0.562 Q 0.389 -0.675 0.342 -0.682 Q 0.338 -0.683 0.334 -0.683 Q 0.28300000000000003 -0.683 0.225 -0.578 Q 0.187 -0.511 0.149 -0.368 Q 0.149 -0.365 0.148 -0.363 M 0.34800000000000003 -0.331 L 0.14 -0.331 Q 0.108 -0.21 0.108 -0.133 Q 0.108 -0.013000000000000001 0.162 -0.011 Q 0.218 -0.011 0.278 -0.128 Q 0.317 -0.202 0.34800000000000003 -0.331 Z"/></g><g transform="translate(13.325444778500572,9.027650857142858)"><path fill="rgb(0,0,0)" stroke="none" paint-order="stroke fill markers" d=" M 0.289 -0.25 L 0.289 -0.25 Q 0.289 -0.081 0.226 0.055 Q 0.17400000000000002 0.166 0.094 0.233 Q 0.073 0.25 0.067 0.25 Q 0.057 0.25 0.057 0.24 Q 0.057 0.23500000000000001 0.07 0.223 Q 0.231 0.059000000000000004 0.231 -0.25 Q 0.231 -0.555 0.081 -0.712 L 0.076 -0.717 Q 0.057 -0.735 0.057 -0.74 Q 0.057 -0.75 0.067 -0.75 Q 0.079 -0.75 0.12 -0.709 Q 0.182 -0.647 0.223 -0.562 Q 0.289 -0.426 0.289 -0.25 Z"/></g><g transform="translate(14.158889222945016,9.027650857142858)"><path fill="rgb(0,0,0)" stroke="none" paint-order="stroke fill markers" d=" M 0.661 -0.23 L 0.116 -0.23 Q 0.084 -0.23 0.083 -0.25 Q 0.083 -0.27 0.116 -0.27 L 0.661 -0.27 Q 0.6930000000000001 -0.27 0.6940000000000001 -0.25 Q 0.6940000000000001 -0.23 0.661 -0.23 Z"/></g><g transform="translate(16.036663017640873,8.351142857142857)"><path fill="rgb(0,0,0)" stroke="none" paint-order="stroke fill markers" d=" M 0.23900000000000002 -0.683 L 0.165 -0.382 Q 0.223 -0.442 0.28200000000000003 -0.442 Q 0.357 -0.442 0.394 -0.373 Q 0.41500000000000004 -0.333 0.41500000000000004 -0.28200000000000003 Q 0.41500000000000004 -0.176 0.341 -0.084 Q 0.272 0.001 0.189 0.01 Q 0.181 0.011 0.17400000000000002 0.011 Q 0.10200000000000001 0.011 0.067 -0.056 Q 0.047 -0.094 0.047 -0.146 Q 0.047 -0.18 0.063 -0.247 L 0.145 -0.5730000000000001 Q 0.159 -0.632 0.159 -0.635 Q 0.159 -0.646 0.145 -0.649 L 0.145 -0.649 Q 0.133 -0.652 0.109 -0.652 Q 0.08700000000000001 -0.652 0.085 -0.664 Q 0.085 -0.681 0.10400000000000001 -0.684 L 0.226 -0.6940000000000001 Q 0.23900000000000002 -0.6940000000000001 0.23900000000000002 -0.683 M 0.145 -0.305 L 0.123 -0.213 Q 0.107 -0.15 0.107 -0.112 Q 0.107 -0.026000000000000002 0.159 -0.013000000000000001 Q 0.166 -0.011 0.17400000000000002 -0.011 Q 0.227 -0.011 0.273 -0.081 Q 0.28300000000000003 -0.096 0.292 -0.114 Q 0.319 -0.171 0.337 -0.268 Q 0.343 -0.303 0.343 -0.326 Q 0.343 -0.406 0.294 -0.418 L 0.293 -0.419 Q 0.28700000000000003 -0.42 0.28 -0.42 Q 0.22 -0.42 0.16 -0.34 Q 0.152 -0.33 0.145 -0.305 Z"/></g><rect fill="rgb(0,0,0)" stroke="none" x="15.471046846141588" y="8.757651357142857" width="1.5602323429985714" height="0.039999"/><g transform="translate(15.471046846141588,9.713601857142857)"><path fill="rgb(0,0,0)" stroke="none" paint-order="stroke fill markers" d=" M 0.088 -0.059000000000000004 L 0.088 -0.059000000000000004 L 0.146 -0.29 Q 0.162 -0.354 0.162 -0.374 Q 0.162 -0.42 0.131 -0.42 Q 0.09 -0.42 0.064 -0.325 Q 0.061 -0.314 0.058 -0.301 Q 0.047 -0.279 0.041 -0.278 Q 0.029 -0.278 0.029 -0.28800000000000003 Q 0.029 -0.304 0.048 -0.356 Q 0.054 -0.373 0.06 -0.385 Q 0.084 -0.434 0.12 -0.441 Q 0.127 -0.442 0.134 -0.442 Q 0.188 -0.442 0.214 -0.397 Q 0.224 -0.378 0.226 -0.355 Q 0.29 -0.442 0.382 -0.442 Q 0.433 -0.442 0.464 -0.41600000000000004 Q 0.492 -0.392 0.496 -0.34500000000000003 Q 0.5640000000000001 -0.442 0.659 -0.442 Q 0.748 -0.442 0.769 -0.373 L 0.769 -0.372 Q 0.774 -0.355 0.774 -0.335 Q 0.774 -0.28200000000000003 0.713 -0.115 Q 0.6950000000000001 -0.07100000000000001 0.6950000000000001 -0.044 Q 0.6950000000000001 -0.011 0.719 -0.011 Q 0.781 -0.011 0.8170000000000001 -0.121 L 0.8210000000000001 -0.135 Q 0.8260000000000001 -0.151 0.8310000000000001 -0.152 L 0.8310000000000001 -0.153 L 0.836 -0.153 Q 0.848 -0.153 0.848 -0.14300000000000002 Q 0.848 -0.126 0.8270000000000001 -0.08 Q 0.784 0.011 0.717 0.011 Q 0.666 0.011 0.644 -0.032 Q 0.635 -0.05 0.635 -0.07100000000000001 Q 0.635 -0.091 0.648 -0.126 Q 0.71 -0.29 0.71 -0.35000000000000003 Q 0.71 -0.42 0.656 -0.42 Q 0.5680000000000001 -0.42 0.51 -0.325 Q 0.494 -0.3 0.491 -0.28700000000000003 Q 0.488 -0.274 0.431 -0.046 Q 0.42 -0.003 0.406 0.006 L 0.405 0.007 L 0.404 0.007 Q 0.397 0.011 0.386 0.011 Q 0.361 0.006 0.357 -0.016 L 0.37 -0.075 L 0.39 -0.151 L 0.418 -0.267 Q 0.433 -0.323 0.433 -0.35000000000000003 Q 0.433 -0.42 0.379 -0.42 Q 0.289 -0.42 0.228 -0.32 Q 0.221 -0.309 0.216 -0.298 L 0.203 -0.248 Q 0.198 -0.225 0.186 -0.181 L 0.164 -0.091 Q 0.147 -0.022 0.145 -0.017 Q 0.136 0.009000000000000001 0.108 0.011 Q 0.083 0.006 0.079 -0.016 Q 0.079 -0.014 0.088 -0.059000000000000004 Z"/></g><g transform="translate(16.349046846141587,9.713601857142857)"><path fill="rgb(0,0,0)" stroke="none" paint-order="stroke fill markers" d=" M 0.258 -0.683 L 0.114 -0.105 Q 0.108 -0.082 0.108 -0.057 Q 0.108 -0.011 0.138 -0.011 Q 0.177 -0.011 0.203 -0.097 Q 0.20800000000000002 -0.112 0.214 -0.135 Q 0.222 -0.152 0.228 -0.153 Q 0.24 -0.153 0.24 -0.14300000000000002 Q 0.24 -0.128 0.222 -0.074 Q 0.216 -0.057 0.21 -0.045 Q 0.184 0.011 0.135 0.011 Q 0.083 0.011 0.057 -0.031 Q 0.044 -0.053 0.044 -0.081 Q 0.044 -0.097 0.049 -0.115 L 0.17500000000000002 -0.615 L 0.178 -0.635 Q 0.178 -0.646 0.164 -0.649 Q 0.152 -0.652 0.129 -0.652 Q 0.106 -0.652 0.10400000000000001 -0.663 Q 0.10400000000000001 -0.681 0.123 -0.684 L 0.245 -0.6940000000000001 Q 0.258 -0.6940000000000001 0.258 -0.683 Z"/></g><g transform="translate(16.667046846141588,9.424712857142858) scale(0.7,0.7)"><path fill="rgb(0,0,0)" stroke="none" paint-order="stroke fill markers" d=" M 0.449 -0.17400000000000002 L 0.449 -0.17400000000000002 L 0.421 0 L 0.05 0 Q 0.05 -0.025 0.056 -0.032 L 0.061 -0.037 L 0.253 -0.251 Q 0.358 -0.369 0.358 -0.47200000000000003 Q 0.358 -0.561 0.304 -0.607 L 0.303 -0.608 L 0.302 -0.608 Q 0.27 -0.635 0.224 -0.635 Q 0.152 -0.635 0.109 -0.5730000000000001 Q 0.097 -0.555 0.089 -0.533 Q 0.092 -0.534 0.10200000000000001 -0.534 Q 0.14200000000000002 -0.534 0.153 -0.498 L 0.153 -0.497 Q 0.155 -0.49 0.155 -0.482 Q 0.155 -0.442 0.117 -0.431 Q 0.109 -0.429 0.10300000000000001 -0.429 Q 0.066 -0.429 0.054 -0.46 Q 0.05 -0.47100000000000003 0.05 -0.485 Q 0.05 -0.562 0.109 -0.617 Q 0.162 -0.666 0.23700000000000002 -0.666 Q 0.34700000000000003 -0.666 0.40800000000000003 -0.592 Q 0.443 -0.549 0.448 -0.49 Q 0.449 -0.481 0.449 -0.47200000000000003 Q 0.449 -0.399 0.394 -0.333 Q 0.365 -0.299 0.304 -0.243 L 0.243 -0.189 L 0.233 -0.18 L 0.127 -0.077 L 0.307 -0.077 Q 0.395 -0.077 0.402 -0.085 Q 0.41200000000000003 -0.099 0.424 -0.17400000000000002 L 0.449 -0.17400000000000002 Z"/></g><g transform="translate(17.591270145670066,8.764650857142858)"><path fill="rgb(0,0,0)" stroke="none" paint-order="stroke fill markers" d=" M 0.192 -0.616 Q 0.192 -0.585 0.164 -0.5700000000000001 Q 0.152 -0.5630000000000001 0.138 -0.5630000000000001 Q 0.105 -0.5630000000000001 0.09 -0.594 Q 0.085 -0.605 0.085 -0.616 Q 0.085 -0.647 0.113 -0.662 Q 0.125 -0.669 0.139 -0.669 Q 0.17200000000000001 -0.669 0.187 -0.638 Q 0.192 -0.627 0.192 -0.616 Z"/></g><g transform="translate(17.398770145670067,9.02765085714286)"><path fill="rgb(0,0,0)" stroke="none" paint-order="stroke fill markers" d=" M 0.455 -0.5 L 0.455 -0.5 Q 0.455 -0.34700000000000003 0.377 -0.19 Q 0.307 -0.05 0.222 -0.005 Q 0.191 0.011 0.162 0.011 Q 0.08 0.011 0.052000000000000005 -0.101 Q 0.042 -0.14300000000000002 0.042 -0.194 Q 0.042 -0.35100000000000003 0.122 -0.509 Q 0.192 -0.646 0.277 -0.6900000000000001 Q 0.307 -0.705 0.335 -0.705 Q 0.422 -0.705 0.447 -0.578 Q 0.455 -0.54 0.455 -0.5 M 0.148 -0.363 L 0.148 -0.363 L 0.357 -0.363 Q 0.389 -0.495 0.389 -0.562 Q 0.389 -0.675 0.342 -0.682 Q 0.338 -0.683 0.334 -0.683 Q 0.28300000000000003 -0.683 0.225 -0.578 Q 0.187 -0.511 0.149 -0.368 Q 0.149 -0.365 0.148 -0.363 M 0.34800000000000003 -0.331 L 0.14 -0.331 Q 0.108 -0.21 0.108 -0.133 Q 0.108 -0.013000000000000001 0.162 -0.011 Q 0.218 -0.011 0.278 -0.128 Q 0.317 -0.202 0.34800000000000003 -0.331 Z"/></g></g><path fill="rgb(255,255,255)" stroke="none" paint-order="stroke fill markers" d=" M 37.5 109 L 166.5 109 C 168.43299662440776 109 170 110.56700337559222 170 112.5 L 170 140.5 C 170 142.43299662440776 168.43299662440776 144 166.5 144 L 37.5 144 C 35.56700337559222 144 34 142.43299662440776 34 140.5 L 34 112.5 C 34 110.56700337559222 35.56700337559222 109 37.5 109 Z" fill-opacity="1"/><path fill="none" stroke="rgb(179,179,179)" paint-order="fill stroke markers" d=" M 37.5 109 L 166.5 109 C 168.43299662440776 109 170 110.56700337559222 170 112.5 L 170 140.5 C 170 142.43299662440776 168.43299662440776 144 166.5 144 L 37.5 144 C 35.56700337559222 144 34 142.43299662440776 34 140.5 L 34 112.5 C 34 110.56700337559222 35.56700337559222 109 37.5 109 Z" stroke-opacity="1" stroke-linecap="round" stroke-linejoin="round" stroke-miterlimit="10"/><text fill="rgb(0,0,0)" stroke="none" font-family="geogebra-sans-serif, sans-serif" font-size="24px" font-style="normal" font-weight="normal" text-decoration="normal" x="44" y="136" text-anchor="start" dominant-baseline="alphabetic" fill-opacity="1">Show SVG</text><path fill="rgb(255,255,255)" stroke="none" paint-order="stroke fill markers" d=" M 204.5 106 L 380.5 106 C 382.4329966244078 106 384 107.56700337559222 384 109.5 L 384 137.5 C 384 139.43299662440776 382.4329966244078 141 380.5 141 L 204.5 141 C 202.56700337559224 141 201 139.43299662440776 201 137.5 L 201 109.5 C 201 107.56700337559222 202.56700337559224 106 204.5 106 Z" fill-opacity="1"/><path fill="none" stroke="rgb(179,179,179)" paint-order="fill stroke markers" d=" M 204.5 106 L 380.5 106 C 382.4329966244078 106 384 107.56700337559222 384 109.5 L 384 137.5 C 384 139.43299662440776 382.4329966244078 141 380.5 141 L 204.5 141 C 202.56700337559224 141 201 139.43299662440776 201 137.5 L 201 109.5 C 201 107.56700337559222 202.56700337559224 106 204.5 106 Z" stroke-opacity="1" stroke-linecap="round" stroke-linejoin="round" stroke-miterlimit="10"/><text fill="rgb(0,0,0)" stroke="none" font-family="geogebra-sans-serif, sans-serif" font-size="24px" font-style="normal" font-weight="normal" text-decoration="normal" x="211" y="133" text-anchor="start" dominant-baseline="alphabetic" fill-opacity="1">Download SVG</text><path fill="rgb(255,255,255)" stroke="none" paint-order="stroke fill markers" fill-rule="evenodd" d=" M 212 30 L 722 30 C 724.2091389993232 30 726 31.790861000676827 726 34 L 726 75 C 726 77.20913899932317 724.2091389993232 79 722 79 L 212 79 C 209.7908610006768 79 208 77.20913899932317 208 75 L 208 34 C 208 31.790861000676827 209.7908610006768 30 212 30 Z" fill-opacity="1"/><path fill="none" stroke="rgb(180,179,186)" paint-order="fill stroke markers" d=" M 212 30 L 722 30 C 724.2091389993232 30 726 31.790861000676827 726 34 L 726 75 C 726 77.20913899932317 724.2091389993232 79 722 79 L 212 79 C 209.7908610006768 79 208 77.20913899932317 208 75 L 208 34 C 208 31.790861000676827 209.7908610006768 30 212 30 Z" stroke-opacity="1" stroke-linecap="round" stroke-linejoin="round" stroke-miterlimit="10"/><text fill="rgb(0,0,0)" stroke="none" font-family="geogebra-sans-serif, sans-serif" font-size="32px" font-style="normal" font-weight="normal" text-decoration="normal" x="210" y="66" text-anchor="start" dominant-baseline="alphabetic" fill-opacity="1"> \ddot{\theta} = -\frac{g}{l}\sin(\theta)</text><text fill="rgb(0,0,0)" stroke="none" font-family="geogebra-sans-serif, sans-serif" font-size="32px" font-style="normal" font-weight="normal" text-decoration="normal" x="30" y="66" text-anchor="start" dominant-baseline="alphabetic" fill-opacity="1">Enter LaTeX</text></g></g></g></g></svg>